<svg id="Capa_1" enable-background="new 0 0 512 512" height="512" viewBox="0 0 512 512" width="512" xmlns="http://www.w3.org/2000/svg"><g><g><path d="m376 401h-240c-8.284 0-15 6.716-15 15s6.716 15 15 15h240c8.284 0 15-6.716 15-15s-6.716-15-15-15z"/><path d="m136 231h105v105c0 8.284 6.716 15 15 15s15-6.716 15-15v-105h105c8.284 0 15-6.716 15-15s-6.716-15-15-15h-105v-105c0-8.284-6.716-15-15-15s-15 6.716-15 15v105h-105c-8.284 0-15 6.716-15 15s6.716 15 15 15z"/></g><path d="m437 0h-362c-41.355 0-75 33.645-75 75v362c0 41.355 33.645 75 75 75h362c41.355 0 75-33.645 75-75v-362c0-41.355-33.645-75-75-75zm45 437c0 24.813-20.187 45-45 45h-362c-24.813 0-45-20.187-45-45v-362c0-24.813 20.187-45 45-45h362c24.813 0 45 20.187 45 45z"/></g></svg>